<svg xmlns="http://www.w3.org/2000/svg" width="26" height="26" viewBox="0 0 26 26" fill="none">
  <path d="M21.2063 7.3125H4.79378C4.59386 7.31344 4.40111 7.38715 4.25158 7.51986C4.10205 7.65257 4.00596 7.83519 3.98128 8.03359L2.5391 21.0336C2.52627 21.1469 2.53742 21.2616 2.57182 21.3702C2.60623 21.4789 2.66312 21.5791 2.73879 21.6644C2.81446 21.7496 2.90723 21.818 3.01105 21.8651C3.11488 21.9121 3.22745 21.9368 3.34144 21.9375H22.6586C22.7726 21.9368 22.8852 21.9121 22.989 21.8651C23.0928 21.818 23.1856 21.7496 23.2613 21.6644C23.3369 21.5791 23.3938 21.4789 23.4282 21.3702C23.4626 21.2616 23.4738 21.1469 23.461 21.0336L22.0188 8.03359C21.9941 7.83519 21.898 7.65257 21.7485 7.51986C21.599 7.38715 21.4062 7.31344 21.2063 7.3125V7.3125Z" stroke="currentColor" stroke-width="1.5" stroke-linecap="round" stroke-linejoin="round"/>
  <path d="M8.9375 10.5625V7.3125C8.9375 6.23506 9.36551 5.20175 10.1274 4.43988C10.8892 3.67801 11.9226 3.25 13 3.25C14.0774 3.25 15.1108 3.67801 15.8726 4.43988C16.6345 5.20175 17.0625 6.23506 17.0625 7.3125V10.5625" stroke="currentColor" stroke-width="1.5" stroke-linecap="round" stroke-linejoin="round"/>
</svg>