<svg width="26" height="26" viewBox="0 0 26 26" fill="none" xmlns="http://www.w3.org/2000/svg">
<path d="M7.71875 11.375C9.73804 11.375 11.375 9.73804 11.375 7.71875C11.375 5.69946 9.73804 4.0625 7.71875 4.0625C5.69946 4.0625 4.0625 5.69946 4.0625 7.71875C4.0625 9.73804 5.69946 11.375 7.71875 11.375Z" stroke="currentColor" stroke-width="1.5" stroke-linecap="round" stroke-linejoin="round"/>
<path d="M18.2812 11.375C21.9375 11.375 21.9375 11.375 21.9375 7.71875C21.9375 4.0625 21.9375 4.0625 18.2812 4.0625C14.625 4.0625 14.625 4.0625 14.625 7.71875C14.625 11.375 14.625 11.375 18.2812 11.375Z" stroke="currentColor" stroke-width="1.5" stroke-linecap="round" stroke-linejoin="round"/>
<path d="M7.71875 21.9375C11.375 21.9375 11.375 21.9375 11.375 18.2812C11.375 14.625 11.375 14.625 7.71875 14.625C4.0625 14.625 4.0625 14.625 4.0625 18.2812C4.0625 21.9375 4.0625 21.9375 7.71875 21.9375Z" stroke="currentColor" stroke-width="1.5" stroke-linecap="round" stroke-linejoin="round"/>
<path d="M18.2812 21.9375C20.3005 21.9375 21.9375 20.3005 21.9375 18.2812C21.9375 16.262 20.3005 14.625 18.2812 14.625C16.262 14.625 14.625 16.262 14.625 18.2812C14.625 20.3005 16.262 21.9375 18.2812 21.9375Z" stroke="currentColor" stroke-width="1.5" stroke-linecap="round" stroke-linejoin="round"/>
</svg>
