<svg width="22" height="22" viewBox="0 0 22 22" fill="none" xmlns="http://www.w3.org/2000/svg">
<path d="M11 6.875V11" stroke="currentColor" stroke-width="1.5" stroke-linecap="round" stroke-linejoin="round"/>
<path d="M14.575 13.0625L11 11" stroke="currentColor" stroke-width="1.5" stroke-linecap="round" stroke-linejoin="round"/>
<path d="M6.17029 8.56796H2.73279V5.13046" stroke="currentColor" stroke-width="1.5" stroke-linecap="round" stroke-linejoin="round"/>
<path d="M5.65466 16.3453C6.71205 17.4036 8.05955 18.1244 9.5267 18.4167C10.9938 18.709 12.5147 18.5596 13.897 17.9874C15.2792 17.4152 16.4606 16.4459 17.2919 15.2021C18.1232 13.9584 18.5668 12.496 18.5668 11C18.5668 9.50402 18.1232 8.04164 17.2919 6.79786C16.4606 5.55408 15.2792 4.58478 13.897 4.01257C12.5147 3.44037 10.9938 3.29097 9.5267 3.58327C8.05955 3.87557 6.71205 4.59644 5.65466 5.65469L2.73279 8.56797" stroke="currentColor" stroke-width="1.5" stroke-linecap="round" stroke-linejoin="round"/>
</svg>
