<svg width="22" height="22" viewBox="0 0 22 22" fill="none" xmlns="http://www.w3.org/2000/svg">
<path d="M15.8125 7.7V7.21875C15.8125 5.06172 12.5641 3.4375 8.25 3.4375C3.93594 3.4375 0.6875 5.06172 0.6875 7.21875V10.6562C0.6875 12.4523 2.93906 13.8789 6.1875 14.3086V14.7812C6.1875 16.9383 9.43594 18.5625 13.75 18.5625C18.0641 18.5625 21.3125 16.9383 21.3125 14.7812V11.3438C21.3125 9.56484 19.1297 8.13828 15.8125 7.7ZM6.1875 12.9078V10.8711C6.87145 10.959 7.56042 11.002 8.25 11C8.93958 11.002 9.62855 10.959 10.3125 10.8711V12.9078C9.63021 13.0141 8.94052 13.0659 8.25 13.0625C7.55948 13.0659 6.86979 13.0141 6.1875 12.9078ZM14.4375 9.44453V10.6562C14.4375 11.3781 13.3719 12.1516 11.6875 12.6242V10.6133C12.7961 10.3469 13.7328 9.94297 14.4375 9.44453ZM2.0625 10.6562V9.44453C2.76719 9.94297 3.70391 10.3469 4.8125 10.6133V12.6242C3.12812 12.1516 2.0625 11.3781 2.0625 10.6562ZM7.5625 14.7812V14.4203L8.25 14.4375C8.58802 14.4375 8.91458 14.4289 9.22969 14.4117C9.57344 14.532 9.93437 14.6352 10.3125 14.7297V16.7492C8.62813 16.2766 7.5625 15.5031 7.5625 14.7812ZM11.6875 17.0328V14.9875C12.3714 15.0772 13.0603 15.1231 13.75 15.125C14.4396 15.127 15.1285 15.084 15.8125 14.9961V17.0328C14.4452 17.2391 13.0548 17.2391 11.6875 17.0328ZM17.1875 16.7492V14.7383C18.2961 14.4719 19.2328 14.068 19.9375 13.5695V14.7812C19.9375 15.5031 18.8719 16.2766 17.1875 16.7492Z" fill="currentColor"/>
</svg>
