<svg width="22" height="22" viewBox="0 0 22 22" fill="none" xmlns="http://www.w3.org/2000/svg">
<path d="M19.25 4.125H2.75C2.38533 4.125 2.03559 4.26987 1.77773 4.52773C1.51987 4.78559 1.375 5.13533 1.375 5.5V8.32734V16.4914C1.375 16.8561 1.51987 17.2058 1.77773 17.4637C2.03559 17.7215 2.38533 17.8664 2.75 17.8664H19.25C19.6147 17.8664 19.9644 17.7215 20.2223 17.4637C20.4801 17.2058 20.625 16.8561 20.625 16.4914V5.5C20.625 5.13533 20.4801 4.78559 20.2223 4.52773C19.9644 4.26987 19.6147 4.125 19.25 4.125ZM11.6875 15.125H10.3125C10.1302 15.125 9.9553 15.0526 9.82636 14.9236C9.69743 14.7947 9.625 14.6198 9.625 14.4375C9.625 14.2552 9.69743 14.0803 9.82636 13.9514C9.9553 13.8224 10.1302 13.75 10.3125 13.75H11.6875C11.8698 13.75 12.0447 13.8224 12.1736 13.9514C12.3026 14.0803 12.375 14.2552 12.375 14.4375C12.375 14.6198 12.3026 14.7947 12.1736 14.9236C12.0447 15.0526 11.8698 15.125 11.6875 15.125ZM17.1875 15.125H14.4375C14.2552 15.125 14.0803 15.0526 13.9514 14.9236C13.8224 14.7947 13.75 14.6198 13.75 14.4375C13.75 14.2552 13.8224 14.0803 13.9514 13.9514C14.0803 13.8224 14.2552 13.75 14.4375 13.75H17.1875C17.3698 13.75 17.5447 13.8224 17.6736 13.9514C17.8026 14.0803 17.875 14.2552 17.875 14.4375C17.875 14.6198 17.8026 14.7947 17.6736 14.9236C17.5447 15.0526 17.3698 15.125 17.1875 15.125ZM2.75 7.63984V5.5H19.25V7.63984H2.75Z" fill="currentColor"/>
</svg>
