<svg width="32" height="33" viewBox="0 0 32 33" fill="none" xmlns="http://www.w3.org/2000/svg">
<path d="M26.5 4.5V28.5C26.5 28.7652 26.3946 29.0196 26.2071 29.2071C26.0196 29.3946 25.7652 29.5 25.5 29.5C25.2348 29.5 24.9804 29.3946 24.7929 29.2071C24.6054 29.0196 24.5 28.7652 24.5 28.5V21.5H18.5C18.3585 21.4986 18.2188 21.4679 18.0897 21.4098C17.9606 21.3517 17.8449 21.2675 17.75 21.1625C17.657 21.0577 17.5867 20.9346 17.5437 20.8012C17.5006 20.6678 17.4858 20.5269 17.5 20.3875C17.8098 17.8839 18.3028 15.4065 18.975 12.975C20.475 7.675 22.5625 4.5 25.1625 3.5625C25.3131 3.50539 25.4754 3.486 25.6352 3.50599C25.795 3.52599 25.9475 3.58477 26.0794 3.67722C26.2113 3.76966 26.3186 3.89296 26.3919 4.03637C26.4652 4.17979 26.5023 4.33895 26.5 4.5ZM15.9875 10.3375L14.9875 4.3375C14.9662 4.20782 14.9195 4.08361 14.8502 3.97197C14.7808 3.86032 14.6902 3.76343 14.5834 3.68682C14.4766 3.61022 14.3558 3.55539 14.2278 3.52548C14.0998 3.49557 13.9672 3.49116 13.8375 3.5125C13.5756 3.55559 13.3416 3.70097 13.1868 3.91663C13.0321 4.1323 12.9694 4.4006 13.0125 4.6625L13.825 9.5H11.5V4.5C11.5 4.23478 11.3946 3.98043 11.2071 3.79289C11.0196 3.60535 10.7652 3.5 10.5 3.5C10.2348 3.5 9.98044 3.60535 9.7929 3.79289C9.60536 3.98043 9.50001 4.23478 9.50001 4.5V9.5H7.17501L7.98751 4.6625C8.00885 4.53282 8.00443 4.4002 7.97452 4.27223C7.94461 4.14425 7.88979 4.02342 7.81318 3.91663C7.73657 3.80985 7.63968 3.71919 7.52804 3.64985C7.41639 3.58051 7.29219 3.53384 7.16251 3.5125C7.03283 3.49116 6.90021 3.49557 6.77224 3.52548C6.64426 3.55539 6.52343 3.61022 6.41664 3.68682C6.30986 3.76343 6.2192 3.86032 6.14986 3.97197C6.08052 4.08361 6.03385 4.20782 6.01251 4.3375L5.01251 10.3375C5.00112 10.3909 4.99692 10.4455 5.00001 10.5C5.00146 11.7853 5.45198 13.0297 6.27367 14.018C7.09537 15.0063 8.23659 15.6764 9.50001 15.9125V28.5C9.50001 28.7652 9.60536 29.0196 9.7929 29.2071C9.98044 29.3946 10.2348 29.5 10.5 29.5C10.7652 29.5 11.0196 29.3946 11.2071 29.2071C11.3946 29.0196 11.5 28.7652 11.5 28.5V15.9125C12.7634 15.6764 13.9046 15.0063 14.7263 14.018C15.548 13.0297 15.9986 11.7853 16 10.5C16.002 10.4497 15.9978 10.3993 15.9875 10.35V10.3375Z" fill="currentColor"/>
</svg>
