<svg width="22" height="20" viewBox="0 0 22 20" fill="none" xmlns="http://www.w3.org/2000/svg">
<path d="M11 18.9375C11 18.9375 0.84375 13.25 0.84375 6.34376C0.84375 5.12286 1.26675 3.93968 2.04079 2.9955C2.81482 2.05133 3.89207 1.4045 5.08926 1.16507C6.28645 0.925629 7.52962 1.10837 8.60725 1.68221C9.68489 2.25605 10.5304 3.18553 11 4.31251V4.31251C11.4696 3.18553 12.3151 2.25605 13.3927 1.68221C14.4704 1.10837 15.7136 0.925629 16.9107 1.16507C18.1079 1.4045 19.1852 2.05133 19.9592 2.9955C20.7332 3.93968 21.1563 5.12286 21.1562 6.34376C21.1563 13.25 11 18.9375 11 18.9375Z" stroke="currentColor" stroke-width="1.5" stroke-linecap="round" stroke-linejoin="round"/>
</svg>
