<svg width="101" height="100" viewBox="0 0 101 100" fill="none" xmlns="http://www.w3.org/2000/svg">
<path d="M50.5 59.375C53.0888 59.375 55.1875 57.2763 55.1875 54.6875C55.1875 52.0987 53.0888 50 50.5 50C47.9112 50 45.8125 52.0987 45.8125 54.6875C45.8125 57.2763 47.9112 59.375 50.5 59.375Z" fill="currentColor"/>
<path d="M81.75 31.25H67.6875V20.3125C67.6875 15.7541 65.8767 11.3824 62.6534 8.1591C59.4301 4.93582 55.0584 3.125 50.5 3.125C45.9416 3.125 41.5699 4.93582 38.3466 8.1591C35.1233 11.3824 33.3125 15.7541 33.3125 20.3125V31.25H19.25C17.5924 31.25 16.0027 31.9085 14.8306 33.0806C13.6585 34.2527 13 35.8424 13 37.5V81.25C13 82.9076 13.6585 84.4973 14.8306 85.6694C16.0027 86.8415 17.5924 87.5 19.25 87.5H81.75C83.4076 87.5 84.9973 86.8415 86.1694 85.6694C87.3415 84.4973 88 82.9076 88 81.25V37.5C88 35.8424 87.3415 34.2527 86.1694 33.0806C84.9973 31.9085 83.4076 31.25 81.75 31.25ZM53.625 65.1562V71.875C53.625 72.7038 53.2958 73.4987 52.7097 74.0847C52.1237 74.6708 51.3288 75 50.5 75C49.6712 75 48.8763 74.6708 48.2903 74.0847C47.7042 73.4987 47.375 72.7038 47.375 71.875V65.1562C44.8573 64.4056 42.6939 62.7738 41.2804 60.5593C39.8669 58.3447 39.2978 55.6953 39.6771 53.0956C40.0564 50.4959 41.3587 48.1196 43.346 46.4012C45.3333 44.6828 47.8728 43.7372 50.5 43.7372C53.1272 43.7372 55.6666 44.6828 57.654 46.4012C59.6413 48.1196 60.9436 50.4959 61.3229 53.0956C61.7022 55.6953 61.1331 58.3447 59.7196 60.5593C58.3061 62.7738 56.1427 64.4056 53.625 65.1562ZM61.4375 31.25H39.5625V20.3125C39.5625 17.4117 40.7148 14.6297 42.766 12.5785C44.8172 10.5273 47.5992 9.375 50.5 9.375C53.4008 9.375 56.1828 10.5273 58.234 12.5785C60.2852 14.6297 61.4375 17.4117 61.4375 20.3125V31.25Z" fill="currentColor"/>
</svg>
