<svg width="15" height="16" viewBox="0 0 15 16" fill="none" xmlns="http://www.w3.org/2000/svg">
<path d="M7.5 1.4375C6.13295 1.43905 4.82234 1.9828 3.85569 2.94944C2.88904 3.91609 2.3453 5.2267 2.34375 6.59375C2.34375 11.0059 7.03125 14.3398 7.23047 14.4805C7.31031 14.5336 7.40408 14.562 7.5 14.562C7.59592 14.562 7.68969 14.5336 7.76953 14.4805C7.96875 14.3398 12.6562 11.0059 12.6562 6.59375C12.6547 5.2267 12.111 3.91609 11.1443 2.94944C10.1777 1.9828 8.86705 1.43905 7.5 1.4375ZM7.5 4.71875C7.87084 4.71875 8.23335 4.82872 8.54169 5.03474C8.85004 5.24077 9.09036 5.53361 9.23227 5.87622C9.37419 6.21883 9.41132 6.59583 9.33897 6.95954C9.26663 7.32326 9.08805 7.65735 8.82582 7.91958C8.5636 8.1818 8.22951 8.36038 7.86579 8.43272C7.50208 8.50507 7.12508 8.46794 6.78247 8.32602C6.43986 8.18411 6.14702 7.94379 5.94099 7.63544C5.73497 7.3271 5.625 6.96459 5.625 6.59375C5.625 6.09647 5.82254 5.61956 6.17417 5.26792C6.52581 4.91629 7.00272 4.71875 7.5 4.71875Z" fill="currentColor"/>
</svg>
