<svg width="16" height="16" viewBox="0 0 16 16" fill="none" xmlns="http://www.w3.org/2000/svg">
<path d="M13.9707 4.64843C13.9692 4.64843 13.9677 4.64781 13.9666 4.64671C13.9655 4.64561 13.9648 4.64412 13.9648 4.64257C13.8802 4.49838 13.7589 4.37912 13.6133 4.29686L8.45704 1.39647C8.31734 1.31848 8.16 1.27753 8 1.27753C7.84001 1.27753 7.68267 1.31848 7.54297 1.39647L2.38672 4.29686C2.24113 4.37912 2.11985 4.49838 2.03516 4.64257C2.03516 4.64412 2.03454 4.64561 2.03344 4.64671C2.03235 4.64781 2.03085 4.64843 2.0293 4.64843V4.66015C1.94829 4.79666 1.90577 4.95257 1.90625 5.11132V10.8887C1.90655 11.0557 1.95119 11.2196 2.0356 11.3638C2.12002 11.5079 2.24119 11.627 2.38672 11.709L7.54297 14.6094C7.67279 14.6802 7.81711 14.7203 7.96485 14.7266H8.04688C8.19089 14.7202 8.33139 14.68 8.45704 14.6094L13.6133 11.709C13.7588 11.627 13.88 11.5079 13.9644 11.3638C14.0488 11.2196 14.0935 11.0557 14.0938 10.8887V5.11132C14.0946 4.94883 14.0521 4.78904 13.9707 4.64843ZM8 2.21093L12.6699 4.83593L10.877 5.85546L6.14844 3.24804L8 2.21093ZM8.05274 7.46093L3.33594 4.83593L5.1875 3.79296L9.92188 6.40038L8.05274 7.46093ZM8.47461 13.5254L8.52149 8.27538L10.4023 7.20311V9.43554C10.4023 9.55986 10.4517 9.67908 10.5396 9.76699C10.6275 9.8549 10.7468 9.90429 10.8711 9.90429C10.9954 9.90429 11.1146 9.8549 11.2026 9.76699C11.2905 9.67908 11.3398 9.55986 11.3398 9.43554V6.66991L13.1563 5.63866V10.8887L8.47461 13.5254Z" fill="currentColor"/>
</svg>
