<svg width="32" height="32" viewBox="0 0 32 32" fill="none" xmlns="http://www.w3.org/2000/svg">
<path d="M28.9124 3.96245C28.635 3.72736 28.299 3.57183 27.9403 3.51241C27.5815 3.45298 27.2134 3.49187 26.8749 3.62495L3.79992 12.6874C3.39519 12.8416 3.05237 13.1246 2.82424 13.4928C2.59612 13.8609 2.49534 14.2939 2.53742 14.7249C2.57497 15.1558 2.75119 15.5629 3.03966 15.8852C3.32814 16.2075 3.71331 16.4276 4.13742 16.5124L9.99992 17.6749V24.9999C9.99972 25.3962 10.1172 25.7836 10.3376 26.113C10.5579 26.4424 10.8711 26.6989 11.2374 26.8499C11.4799 26.9475 11.7386 26.9984 11.9999 26.9999C12.2626 27.0009 12.5228 26.9494 12.7654 26.8485C13.0079 26.7476 13.2279 26.5994 13.4124 26.4124L16.6624 23.1749L21.5749 27.4999C21.9376 27.8198 22.4039 27.9974 22.8874 27.9999C23.1001 28.0043 23.3118 27.9705 23.5124 27.8999C23.8423 27.7956 24.1392 27.6069 24.3738 27.3526C24.6083 27.0983 24.7725 26.7871 24.8499 26.4499L29.5499 5.92495C29.6321 5.57078 29.6161 5.20092 29.5038 4.85514C29.3915 4.50935 29.187 4.20073 28.9124 3.96245ZM22.8999 25.9999L12.5999 16.9374L27.4374 6.22495L22.8999 25.9999Z" fill="currentColor"/>
</svg>
