<svg width="22" height="22" viewBox="0 0 22 22" fill="none" xmlns="http://www.w3.org/2000/svg">
<path d="M21.3125 10.3039V10.2867C21.3139 10.2663 21.311 10.2458 21.3039 10.2266V10.2008C21.3039 10.1836 21.2953 10.1664 21.2953 10.1492V10.132L21.2781 10.0633H21.2695L20.0664 7.07266C19.9705 6.81092 19.796 6.5853 19.5667 6.4268C19.3374 6.2683 19.0647 6.1847 18.7859 6.1875H15.8125V5.5C15.8125 5.31766 15.7401 5.1428 15.6111 5.01386C15.4822 4.88493 15.3073 4.8125 15.125 4.8125H2.0625C1.69783 4.8125 1.34809 4.95737 1.09023 5.21523C0.832366 5.47309 0.6875 5.82283 0.6875 6.1875V15.8125C0.6875 16.1772 0.832366 16.5269 1.09023 16.7848C1.34809 17.0426 1.69783 17.1875 2.0625 17.1875H3.17969C3.33114 17.779 3.67517 18.3033 4.15753 18.6778C4.63988 19.0522 5.23313 19.2554 5.84375 19.2554C6.45437 19.2554 7.04762 19.0522 7.52997 18.6778C8.01233 18.3033 8.35636 17.779 8.50781 17.1875H13.4922C13.6436 17.779 13.9877 18.3033 14.47 18.6778C14.9524 19.0522 15.5456 19.2554 16.1562 19.2554C16.7669 19.2554 17.3601 19.0522 17.8425 18.6778C18.3248 18.3033 18.6689 17.779 18.8203 17.1875H19.9375C20.3022 17.1875 20.6519 17.0426 20.9098 16.7848C21.1676 16.5269 21.3125 16.1772 21.3125 15.8125V10.3125V10.3039ZM15.8125 7.5625H18.7859L19.6109 9.625H15.8125V7.5625ZM2.0625 6.1875H14.4375V11.6875H2.0625V6.1875ZM5.84375 17.875C5.5718 17.875 5.30596 17.7944 5.07984 17.6433C4.85372 17.4922 4.67749 17.2774 4.57342 17.0262C4.46935 16.7749 4.44212 16.4985 4.49517 16.2318C4.54822 15.965 4.67918 15.72 4.87148 15.5277C5.06378 15.3354 5.30878 15.2045 5.5755 15.1514C5.84222 15.0984 6.11869 15.1256 6.36994 15.2297C6.62119 15.3337 6.83593 15.51 6.98702 15.7361C7.13811 15.9622 7.21875 16.2281 7.21875 16.5C7.21875 16.8647 7.07388 17.2144 6.81602 17.4723C6.55816 17.7301 6.20842 17.875 5.84375 17.875ZM16.1562 17.875C15.8843 17.875 15.6185 17.7944 15.3923 17.6433C15.1662 17.4922 14.99 17.2774 14.8859 17.0262C14.7818 16.7749 14.7546 16.4985 14.8077 16.2318C14.8607 15.965 14.9917 15.72 15.184 15.5277C15.3763 15.3354 15.6213 15.2045 15.888 15.1514C16.1547 15.0984 16.4312 15.1256 16.6824 15.2297C16.9337 15.3337 17.1484 15.51 17.2995 15.7361C17.4506 15.9622 17.5312 16.2281 17.5312 16.5C17.5312 16.8647 17.3864 17.2144 17.1285 17.4723C16.8707 17.7301 16.5209 17.875 16.1562 17.875Z" fill="currentColor"/>
</svg>
