<svg width="26" height="26" viewBox="0 0 26 26" fill="none" xmlns="http://www.w3.org/2000/svg">
<path d="M8.125 14.625C10.3687 14.625 12.1875 12.8062 12.1875 10.5625C12.1875 8.31884 10.3687 6.5 8.125 6.5C5.88134 6.5 4.0625 8.31884 4.0625 10.5625C4.0625 12.8062 5.88134 14.625 8.125 14.625Z" stroke="currentColor" stroke-width="1.5" stroke-linecap="round" stroke-linejoin="round"/>
<path d="M15.4375 8.125H25.1875" stroke="currentColor" stroke-width="1.5" stroke-linecap="round" stroke-linejoin="round"/>
<path d="M15.4375 13H25.1875" stroke="currentColor" stroke-width="1.5" stroke-linecap="round" stroke-linejoin="round"/>
<path d="M17.875 17.875H25.1875" stroke="currentColor" stroke-width="1.5" stroke-linecap="round" stroke-linejoin="round"/>
<path d="M1.82812 19.5C2.18611 18.1019 2.99926 16.8626 4.13938 15.9776C5.27949 15.0927 6.68172 14.6123 8.125 14.6123C9.56828 14.6123 10.9705 15.0927 12.1106 15.9776C13.2507 16.8626 14.0639 18.1019 14.4219 19.5" stroke="currentColor" stroke-width="1.5" stroke-linecap="round" stroke-linejoin="round"/>
</svg>
