<svg viewBox="0 0 365 160" fill="none" xmlns="http://www.w3.org/2000/svg">
<path fill-rule="evenodd" clip-rule="evenodd" d="M107.539 0.513166C106.52 0.173278 105.452 0 104.377 0H10C4.47715 0 0 4.47715 0 10V150C0 155.523 4.47716 160 10 160H355C360.523 160 365 155.523 365 150V10C365 4.47715 360.523 0 355 0H259.623C258.548 0 257.48 0.173279 256.461 0.513167L229.54 9.48683C228.52 9.82672 227.452 10 226.377 10H137.623C136.548 10 135.48 9.82672 134.46 9.48683L107.539 0.513166Z" fill="#232323"/>
</svg>
