<svg viewBox="0 0 69 31" fill="none" xmlns="http://www.w3.org/2000/svg">
<g clip-path="url(#clip0_106_6383)">
<path d="M38.6797 20.9871C38.884 20.7896 39.0453 20.5529 39.1544 20.2914C39.263 20.0299 39.3168 19.7492 39.3123 19.4663V13.038C39.3176 12.1353 39.1423 11.2406 38.7962 10.4056C38.4496 9.57056 37.9395 8.812 37.2953 8.17369C36.6509 7.53538 35.8851 7.03008 35.0421 6.68711C34.1992 6.34413 33.2959 6.1703 32.3846 6.17565C31.5067 6.15921 30.634 6.31455 29.8168 6.63277C28.9995 6.95094 28.2537 7.4258 27.622 8.02994C26.9903 7.4258 26.2445 6.95094 25.4272 6.63277C24.61 6.31455 23.7374 6.15921 22.8594 6.17565C21.7654 6.16354 20.6844 6.412 19.7075 6.90012C19.6843 6.8656 19.6611 6.83113 19.6407 6.79662C19.4381 6.59668 19.1971 6.43899 18.9319 6.33282C18.6667 6.22667 18.3827 6.17419 18.0967 6.17852C17.8124 6.17774 17.5306 6.23271 17.2677 6.34028C17.0049 6.44781 16.766 6.6058 16.5651 6.80513C16.3642 7.00451 16.205 7.24124 16.0967 7.50178C15.9885 7.76233 15.9334 8.04147 15.9346 8.32321V19.4692C15.9239 19.7572 15.972 20.0445 16.0759 20.3137C16.1798 20.5829 16.3375 20.8287 16.5394 21.0362C16.7414 21.2437 16.9836 21.4088 17.2514 21.5216C17.5192 21.6342 17.8072 21.6924 18.0982 21.6924C18.3892 21.6924 18.6772 21.6342 18.945 21.5216C19.2129 21.4088 19.4549 21.2437 19.6569 21.0362C19.8589 20.8287 20.0165 20.5829 20.1205 20.3137C20.2244 20.0445 20.2725 19.7572 20.2619 19.4692V13.038C20.2233 12.6773 20.2617 12.3125 20.3747 11.9675C20.4877 11.6224 20.6727 11.3048 20.9176 11.0351C21.1626 10.7654 21.462 10.5497 21.7965 10.4022C22.1311 10.2545 22.4931 10.1782 22.8594 10.1782C23.2255 10.1782 23.5877 10.2545 23.9222 10.4022C24.2568 10.5497 24.5562 10.7654 24.8011 11.0351C25.046 11.3048 25.231 11.6224 25.3441 11.9675C25.457 12.3125 25.4954 12.6773 25.4569 13.038V19.4692C25.4569 20.038 25.6851 20.5835 26.091 20.9857C26.4971 21.3879 27.0478 21.6138 27.622 21.6138C28.1962 21.6138 28.7469 21.3879 29.1529 20.9857C29.559 20.5835 29.7871 20.038 29.7871 19.4692V13.038C29.7486 12.6773 29.787 12.3125 29.9 11.9675C30.013 11.6224 30.198 11.3048 30.4429 11.0351C30.6878 10.7654 30.9872 10.5497 31.3218 10.4022C31.6562 10.2545 32.0185 10.1782 32.3846 10.1782C32.7509 10.1782 33.1129 10.2545 33.4475 10.4022C33.782 10.5497 34.0815 10.7654 34.3264 11.0351C34.5714 11.3048 34.7563 11.6224 34.8693 11.9675C34.9822 12.3125 35.0207 12.6773 34.9821 13.038V19.4692C34.983 19.8932 35.1105 20.3075 35.3485 20.6598C35.5866 21.0121 35.9247 21.2868 36.3201 21.449C36.7155 21.6114 37.1505 21.6541 37.5705 21.572C37.9904 21.4898 38.3761 21.2863 38.6797 20.9871Z" fill="#3459DD"/>
<path d="M50.103 18.7188C50.2946 18.7188 50.4891 18.6987 50.6833 18.6815C51.4958 17.8564 52.7702 16.2924 53.7219 15.0964V15.8123C53.7917 15.3782 53.8324 14.9354 53.8818 14.5128C53.9512 13.9206 53.8818 13.5814 53.7219 13.4118V14.4869C52.6277 15.8755 50.8865 18.0318 50.103 18.7188Z" fill="#3459DD"/>
<path d="M47.2035 15.7491C46.3705 16.3729 45.0675 16.3758 43.7817 16.1458C43.8082 16.278 43.8421 16.4085 43.8832 16.5368C44.3194 16.6133 44.761 16.6546 45.204 16.6605C45.9939 16.7019 46.7755 16.4858 47.4301 16.0452C47.8203 15.7099 48.1823 15.3436 48.5126 14.9499C48.3701 14.9269 48.2223 14.9039 48.0857 14.8664C47.8154 15.1831 47.5206 15.4782 47.2035 15.7491Z" fill="#3459DD"/>
<path d="M43.6948 15.4012C44.4636 15.433 45.2222 15.2171 45.8571 14.7859C46.063 14.6134 46.2572 14.427 46.4374 14.2282C46.3243 14.1708 46.2111 14.1103 46.0977 14.0442C45.9492 14.2047 45.7878 14.3537 45.6162 14.4898C45.0438 14.8704 44.3633 15.0588 43.6744 15.0274V14.1937C43.6518 14.3007 43.6393 14.4094 43.6367 14.5186C43.6367 14.8751 43.6367 15.2316 43.6744 15.5794L43.6948 15.4012Z" fill="#3459DD"/>
<path d="M48.4689 17.221C47.4908 17.9599 45.857 17.8305 44.3594 17.4797C44.4913 17.6554 44.6445 17.8147 44.8148 17.9541C45.3605 18.0649 45.9154 18.1245 46.472 18.1323C47.2612 18.1751 48.0428 17.9588 48.695 17.5172C49.2961 17.0686 50.6833 15.4098 51.8095 14.0069C51.4667 14.2283 51.1188 14.4611 50.8051 14.648C49.8707 15.7807 48.9156 16.8846 48.4689 17.221Z" fill="#3459DD"/>
<path d="M48.6635 21.6138C49.6891 21.6306 50.7075 21.4393 51.6558 21.0517C52.6041 20.6641 53.4626 20.0884 54.1778 19.3599C54.9135 18.6515 55.4949 17.8015 55.8863 16.8621C56.2773 15.9226 56.4703 14.9137 56.453 13.8977C56.4708 12.8814 56.2781 11.8725 55.8866 10.9331C55.4953 9.99353 54.9135 9.14348 54.1778 8.43531C52.713 6.99083 50.7302 6.17986 48.6635 6.17986C46.5966 6.17986 44.614 6.99083 43.1492 8.43531C42.4128 9.14334 41.8306 9.99332 41.4389 10.9328C41.0471 11.8723 40.8537 12.8813 40.8707 13.8977C40.8541 14.914 41.0475 15.9229 41.4396 16.8623C41.8314 17.8017 42.4132 18.6518 43.1492 19.3599C43.8641 20.0889 44.7222 20.665 45.6705 21.0527C46.6192 21.4403 47.6376 21.6314 48.6635 21.6138ZM53.8875 10.6892C52.4258 10.9981 50.9828 11.3898 49.5662 11.8622C49.5662 11.8622 50.367 9.58239 53.8789 10.6863L53.8875 10.6892ZM47.9871 11.8622C46.5706 11.3898 45.1276 10.9981 43.6657 10.6892C47.1689 9.58239 47.9784 11.8593 47.9784 11.8593L47.9871 11.8622ZM43.7034 14.1966C43.8196 13.636 44.194 12.7822 44.9775 13.3342C45.3692 13.6044 45.7497 13.8459 46.1384 14.0586C46.2516 14.1248 46.365 14.1851 46.4782 14.2426C46.9928 14.5213 47.5395 14.7375 48.1063 14.8866C48.2484 14.924 48.3966 14.947 48.5327 14.97C49.0206 15.055 49.5183 15.0695 50.01 15.0131C50.2897 14.9442 50.5544 14.8253 50.7908 14.6624C51.1041 14.4755 51.4526 14.2426 51.7949 14.0212C52.5845 13.5095 53.3623 13.0668 53.7077 13.4463C53.8672 13.6159 53.9369 13.9552 53.8672 14.5474C53.8178 14.97 53.7774 15.4098 53.7077 15.8468C53.5335 16.922 53.1825 17.9369 52.0736 18.3997C51.6267 18.5659 51.157 18.6629 50.6803 18.6872C50.4888 18.7045 50.2947 18.716 50.1001 18.7246H49.984L49.4791 18.739C47.9554 18.7735 46.0253 18.9546 44.8093 17.9541C44.6386 17.8147 44.4858 17.6554 44.3535 17.4797C44.2898 17.3906 44.2287 17.3015 44.1706 17.1922C44.0503 16.9809 43.9527 16.7573 43.8806 16.5253C43.8392 16.397 43.8053 16.2664 43.7789 16.1343C43.7411 15.9475 43.7121 15.7606 43.6917 15.5593C43.6601 15.2115 43.654 14.855 43.654 14.4985C43.659 14.396 43.6726 14.294 43.6948 14.1937L43.7034 14.1966Z" fill="#3459DD"/>
<path d="M60.5683 6.91737C60.2497 6.91658 59.9341 6.97825 59.6396 7.09881C59.3447 7.2194 59.0775 7.39639 58.8519 7.6198C58.6269 7.84315 58.4485 8.10845 58.3271 8.40035C58.2057 8.69226 58.1439 9.00507 58.145 9.32076V24.3853C58.145 25.0897 57.9448 25.4346 57.5444 25.4231C57.1394 25.4132 56.7499 25.2684 56.4385 25.012C55.9943 24.7115 55.46 24.5695 54.9235 24.6095C54.5936 24.6082 54.2667 24.6738 53.9632 24.8024C53.6597 24.9309 53.3859 25.1197 53.1589 25.357C52.9059 25.6122 52.708 25.916 52.5779 26.2497C52.4474 26.5834 52.3874 26.94 52.4014 27.2975C52.4014 28.0949 52.8802 28.8385 53.838 29.5285C54.7957 30.2184 56.1278 30.5644 57.8343 30.5664C59.4251 30.5664 60.6825 30.1083 61.6074 29.1921C62.0562 28.7593 62.4106 28.2403 62.6493 27.6667C62.8875 27.0932 63.0052 26.4775 62.9946 25.8572V9.32076C62.9957 9.00485 62.9339 8.69182 62.8125 8.3997C62.6907 8.10758 62.5124 7.84221 62.2865 7.61872C62.061 7.39538 61.7933 7.21839 61.4985 7.09799C61.2032 6.97762 60.8873 6.91622 60.5683 6.91737Z" fill="#3459DD"/>
<path d="M60.5685 0.000331416C60.2367 -0.00461661 59.9072 0.0575917 59.6003 0.18315C59.2933 0.308709 59.0154 0.494976 58.7836 0.730555C58.5457 0.959789 58.3571 1.23492 58.2304 1.53901C58.1038 1.84309 58.0412 2.16968 58.0465 2.49862C58.0412 2.82757 58.1038 3.15416 58.2304 3.45824C58.3571 3.76232 58.5457 4.03747 58.7836 4.26668C59.2579 4.73404 59.8996 4.99638 60.5685 4.99638C61.2374 4.99638 61.8791 4.73404 62.3534 4.26668C62.5925 4.03788 62.781 3.7628 62.9078 3.45863C63.0348 3.15445 63.097 2.82767 63.0906 2.49862C63.097 2.16957 63.0348 1.84279 62.9078 1.53861C62.781 1.23443 62.5925 0.959371 62.3534 0.730555C62.122 0.494566 61.8444 0.308028 61.5376 0.182439C61.2303 0.056851 60.9007 -0.00512523 60.5685 0.000331416Z" fill="#3459DD"/>
<path d="M66.5009 6.85122C66.1853 6.84973 65.8723 6.91016 65.5805 7.02912C65.2886 7.14808 65.0233 7.32314 64.8 7.54417C64.5768 7.76528 64.4004 8.02799 64.2801 8.31716C64.1602 8.60625 64.0991 8.9161 64.1006 9.22877V28.3354C64.1006 28.966 64.3536 29.5707 64.8034 30.0166C65.2536 30.4625 65.864 30.713 66.5009 30.713C67.1373 30.713 67.7478 30.4625 68.198 30.0166C68.6481 29.5707 68.9008 28.966 68.9008 28.3354V9.22877C68.9023 8.9161 68.8416 8.60625 68.7214 8.31716C68.6014 8.02799 68.4246 7.76528 68.2014 7.54417C67.9782 7.32314 67.7131 7.14808 67.4213 7.02912C67.1291 6.91016 66.8165 6.84973 66.5009 6.85122Z" fill="#3459DD"/>
<path d="M66.5009 4.94805C66.8297 4.95324 67.1563 4.89165 67.4602 4.76705C67.764 4.64245 68.0393 4.45746 68.2682 4.22359C68.505 3.99698 68.692 3.72464 68.8176 3.42345C68.9434 3.12226 69.0053 2.79866 68.9996 2.47275C69.0053 2.1473 68.9431 1.8242 68.8171 1.52351C68.6916 1.22282 68.5046 0.950952 68.2682 0.724811C67.7991 0.260986 67.1634 0.000480652 66.5009 0.000480652C65.8381 0.000480652 65.2024 0.260986 64.7333 0.724811C64.4973 0.951097 64.3111 1.22305 64.1855 1.52375C64.0603 1.82445 63.9988 2.14749 64.0048 2.47275C63.9969 2.79764 64.0566 3.12066 64.1798 3.42182C64.3031 3.72298 64.4875 3.99587 64.7216 4.22359C64.952 4.45892 65.2291 4.6447 65.5349 4.76933C65.8411 4.89401 66.1699 4.95481 66.5009 4.94805Z" fill="#3459DD"/>
<path d="M10.6785 16.324C9.84528 16.9469 8.83708 17.2976 7.79366 17.3274C7.14474 17.336 6.50738 17.1571 5.95941 16.8128L13.2499 12.6499C13.5626 12.4833 13.8223 12.2336 13.9997 11.9289C14.177 11.6242 14.2651 11.2765 14.2541 10.925C14.1951 9.80934 13.7045 8.75916 12.8842 7.99259C11.6479 6.78127 9.95103 6.17561 7.79366 6.17561C6.76761 6.15873 5.74898 6.35026 4.80056 6.73839C3.85216 7.12652 2.99409 7.70307 2.27932 8.43243C1.54303 9.14046 0.961003 9.99043 0.569159 10.9299C0.177315 11.8693 -0.0160339 12.8784 0.00103981 13.8948C-0.0156902 14.9111 0.177817 15.92 0.569639 16.8594C0.961461 17.7988 1.5433 18.6489 2.27932 19.357C2.99424 20.0861 3.85239 20.6621 4.80082 21.0498C5.74925 21.4374 6.7678 21.6284 7.79366 21.611C9.95292 21.611 11.6469 21.0024 12.8755 19.7854C14.1041 18.5684 14.286 17.519 13.4212 16.6374C12.5563 15.7596 11.642 15.6551 10.6785 16.324ZM5.35282 11.4597C5.66931 11.1373 6.04922 10.8827 6.46907 10.7116C6.88892 10.5404 7.33978 10.4565 7.79366 10.465C8.37667 10.4688 8.95329 10.585 9.4915 10.8071L4.33124 13.774C4.35318 12.8999 4.7199 12.0692 5.35282 11.4597Z" fill="#3459DD"/>
</g>
<g clip-path="url(#clip1_106_6383)">
<path d="M38.6797 20.9871C38.884 20.7896 39.0453 20.5529 39.1544 20.2914C39.263 20.0299 39.3168 19.7491 39.3123 19.4663V13.038C39.3176 12.1354 39.1423 11.2406 38.7962 10.4056C38.4496 9.57059 37.9395 8.81199 37.2953 8.17369C36.6509 7.53538 35.8851 7.03008 35.0421 6.68713C34.1992 6.34411 33.2959 6.1703 32.3846 6.17563C31.5067 6.15919 30.634 6.31455 29.8168 6.63277C28.9995 6.95092 28.2537 7.4258 27.622 8.02993C26.9903 7.4258 26.2445 6.95092 25.4272 6.63277C24.61 6.31455 23.7374 6.15919 22.8594 6.17563C21.7654 6.16352 20.6844 6.41202 19.7075 6.90009C19.6843 6.86563 19.6611 6.8311 19.6407 6.79664C19.4381 6.59665 19.1971 6.43899 18.9319 6.33279C18.6667 6.22667 18.3827 6.17419 18.0967 6.17851C17.8124 6.17772 17.5306 6.23273 17.2677 6.34029C17.0049 6.44778 16.766 6.60581 16.5651 6.80515C16.3642 7.00448 16.205 7.24124 16.0967 7.50178C15.9885 7.76233 15.9334 8.04147 15.9346 8.32319V19.4692C15.9239 19.7573 15.972 20.0445 16.0759 20.3137C16.1798 20.583 16.3375 20.8287 16.5394 21.0362C16.7414 21.2437 16.9836 21.4088 17.2514 21.5215C17.5192 21.6343 17.8072 21.6924 18.0982 21.6924C18.3892 21.6924 18.6772 21.6343 18.945 21.5215C19.2129 21.4088 19.4549 21.2437 19.6569 21.0362C19.8589 20.8287 20.0165 20.583 20.1205 20.3137C20.2244 20.0445 20.2725 19.7573 20.2619 19.4692V13.038C20.2233 12.6773 20.2617 12.3126 20.3747 11.9675C20.4877 11.6224 20.6727 11.3047 20.9176 11.0351C21.1626 10.7654 21.462 10.5497 21.7965 10.4021C22.1311 10.2545 22.4931 10.1783 22.8594 10.1783C23.2255 10.1783 23.5877 10.2545 23.9222 10.4021C24.2568 10.5497 24.5562 10.7654 24.8011 11.0351C25.046 11.3047 25.231 11.6224 25.3441 11.9675C25.457 12.3126 25.4954 12.6773 25.4569 13.038V19.4692C25.4569 20.038 25.6851 20.5835 26.091 20.9857C26.4971 21.3879 27.0478 21.6139 27.622 21.6139C28.1962 21.6139 28.7469 21.3879 29.1529 20.9857C29.559 20.5835 29.7871 20.038 29.7871 19.4692V13.038C29.7486 12.6773 29.787 12.3126 29.9 11.9675C30.013 11.6224 30.198 11.3047 30.4429 11.0351C30.6878 10.7654 30.9872 10.5497 31.3218 10.4021C31.6562 10.2545 32.0185 10.1783 32.3846 10.1783C32.7509 10.1783 33.1129 10.2545 33.4475 10.4021C33.782 10.5497 34.0815 10.7654 34.3264 11.0351C34.5714 11.3047 34.7563 11.6224 34.8693 11.9675C34.9822 12.3126 35.0207 12.6773 34.9821 13.038V19.4692C34.983 19.8932 35.1105 20.3074 35.3485 20.6598C35.5866 21.0121 35.9247 21.2867 36.3201 21.449C36.7155 21.6114 37.1505 21.6541 37.5705 21.5719C37.9904 21.4898 38.3761 21.2863 38.6797 20.9871Z" fill="#FFE600"/>
<path d="M50.103 18.7188C50.2946 18.7188 50.4891 18.6987 50.6833 18.6815C51.4958 17.8563 52.7702 16.2924 53.7219 15.0964V15.8123C53.7917 15.3782 53.8324 14.9355 53.8818 14.5128C53.9512 13.9206 53.8818 13.5814 53.7219 13.4118V14.487C52.6277 15.8755 50.8865 18.0317 50.103 18.7188Z" fill="#FFE600"/>
<path d="M47.2035 15.7491C46.3705 16.3729 45.0675 16.3758 43.7817 16.1458C43.8082 16.2779 43.8421 16.4085 43.8832 16.5368C44.3194 16.6133 44.761 16.6546 45.204 16.6604C45.9939 16.7019 46.7755 16.4858 47.4301 16.0452C47.8203 15.7099 48.1823 15.3436 48.5126 14.9499C48.3701 14.9269 48.2223 14.9039 48.0857 14.8665C47.8154 15.1831 47.5206 15.4782 47.2035 15.7491Z" fill="#FFE600"/>
<path d="M43.6948 15.4012C44.4636 15.4329 45.2222 15.2171 45.8571 14.786C46.063 14.6134 46.2572 14.427 46.4374 14.2282C46.3243 14.1707 46.2111 14.1103 46.0977 14.0442C45.9492 14.2047 45.7878 14.3537 45.6162 14.4898C45.0438 14.8704 44.3633 15.0588 43.6744 15.0275V14.1937C43.6518 14.3006 43.6393 14.4094 43.6367 14.5186C43.6367 14.8751 43.6367 15.2316 43.6744 15.5794L43.6948 15.4012Z" fill="#FFE600"/>
<path d="M48.4689 17.221C47.4908 17.9599 45.857 17.8305 44.3594 17.4797C44.4913 17.6554 44.6445 17.8147 44.8148 17.9541C45.3605 18.0648 45.9154 18.1245 46.472 18.1323C47.2612 18.1751 48.0428 17.9588 48.695 17.5171C49.2961 17.0686 50.6833 15.4098 51.8095 14.0069C51.4667 14.2283 51.1188 14.4611 50.8051 14.648C49.8707 15.7807 48.9156 16.8847 48.4689 17.221Z" fill="#FFE600"/>
<path d="M48.6635 21.6139C49.6891 21.6307 50.7075 21.4394 51.6558 21.0518C52.6041 20.6642 53.4626 20.0884 54.1778 19.36C54.9135 18.6516 55.4949 17.8015 55.8863 16.8621C56.2773 15.9226 56.4703 14.9138 56.453 13.8977C56.4708 12.8815 56.2781 11.8726 55.8866 10.9331C55.4953 9.99358 54.9135 9.14355 54.1778 8.43536C52.713 6.9909 50.7302 6.17992 48.6635 6.17992C46.5966 6.17992 44.614 6.9909 43.1492 8.43536C42.4128 9.14339 41.8306 9.99336 41.4389 10.9328C41.0471 11.8723 40.8537 12.8813 40.8707 13.8977C40.8541 14.914 41.0475 15.9229 41.4396 16.8624C41.8314 17.8018 42.4132 18.6518 43.1492 19.36C43.8641 20.089 44.7222 20.665 45.6705 21.0527C46.6192 21.4404 47.6376 21.6314 48.6635 21.6139ZM53.8875 10.6893C52.4258 10.9982 50.9828 11.3898 49.5662 11.8622C49.5662 11.8622 50.367 9.58243 53.8789 10.6864L53.8875 10.6893ZM47.9871 11.8622C46.5706 11.3898 45.1276 10.9982 43.6657 10.6893C47.1689 9.58243 47.9784 11.8594 47.9784 11.8594L47.9871 11.8622ZM43.7034 14.1967C43.8196 13.6361 44.194 12.7822 44.9775 13.3342C45.3692 13.6044 45.7497 13.8459 46.1384 14.0587C46.2516 14.1248 46.365 14.1852 46.4782 14.2427C46.9928 14.5213 47.5395 14.7376 48.1063 14.8866C48.2484 14.924 48.3966 14.947 48.5327 14.97C49.0206 15.0551 49.5183 15.0696 50.01 15.0132C50.2897 14.9442 50.5544 14.8253 50.7908 14.6624C51.1041 14.4755 51.4526 14.2427 51.7949 14.0213C52.5845 13.5096 53.3623 13.0668 53.7077 13.4463C53.8672 13.616 53.9369 13.9552 53.8672 14.5474C53.8178 14.97 53.7774 15.4099 53.7077 15.8469C53.5335 16.9221 53.1825 17.9369 52.0736 18.3998C51.6267 18.5659 51.157 18.6629 50.6803 18.6873C50.4888 18.7045 50.2947 18.716 50.1001 18.7246H49.984L49.4791 18.739C47.9554 18.7735 46.0253 18.9546 44.8093 17.9542C44.6386 17.8147 44.4858 17.6555 44.3535 17.4798C44.2898 17.3907 44.2287 17.3015 44.1706 17.1923C44.0503 16.9809 43.9527 16.7573 43.8806 16.5254C43.8392 16.397 43.8053 16.2665 43.7789 16.1343C43.7411 15.9475 43.7121 15.7606 43.6917 15.5594C43.6601 15.2115 43.654 14.855 43.654 14.4985C43.659 14.396 43.6726 14.294 43.6948 14.1938L43.7034 14.1967Z" fill="#FFE600"/>
<path d="M48.6635 21.6139C49.6891 21.6307 50.7075 21.4394 51.6558 21.0518C52.6041 20.6642 53.4626 20.0884 54.1778 19.36C54.9135 18.6516 55.4949 17.8015 55.8863 16.8621C56.2773 15.9226 56.4703 14.9138 56.453 13.8977C56.4708 12.8815 56.2781 11.8726 55.8866 10.9331C55.4953 9.99358 54.9135 9.14355 54.1778 8.43536C52.713 6.9909 50.7302 6.17992 48.6635 6.17992C46.5966 6.17992 44.614 6.9909 43.1492 8.43536C42.4128 9.14339 41.8306 9.99336 41.4389 10.9328C41.0471 11.8723 40.8537 12.8813 40.8707 13.8977C40.8541 14.914 41.0475 15.9229 41.4396 16.8624C41.8314 17.8018 42.4132 18.6518 43.1492 19.36C43.8641 20.089 44.7222 20.665 45.6705 21.0527C46.6192 21.4404 47.6376 21.6314 48.6635 21.6139ZM53.8875 10.6893C52.4258 10.9982 50.9828 11.3898 49.5662 11.8622C49.5662 11.8622 50.367 9.58243 53.8789 10.6864L53.8875 10.6893ZM47.9871 11.8622C46.5706 11.3898 45.1276 10.9982 43.6657 10.6893C47.1689 9.58243 47.9784 11.8594 47.9784 11.8594L47.9871 11.8622ZM43.7034 14.1967C43.8196 13.6361 44.194 12.7822 44.9775 13.3342C45.3692 13.6044 45.7497 13.8459 46.1384 14.0587C46.2516 14.1248 46.365 14.1852 46.4782 14.2427C46.9928 14.5213 47.5395 14.7376 48.1063 14.8866C48.2484 14.924 48.3966 14.947 48.5327 14.97C49.0206 15.0551 49.5183 15.0696 50.01 15.0132C50.2897 14.9442 50.5544 14.8253 50.7908 14.6624C51.1041 14.4755 51.4526 14.2427 51.7949 14.0213C52.5845 13.5096 53.3623 13.0668 53.7077 13.4463C53.8672 13.616 53.9369 13.9552 53.8672 14.5474C53.8178 14.97 53.7774 15.4099 53.7077 15.8469C53.5335 16.9221 53.1825 17.9369 52.0736 18.3998C51.6267 18.5659 51.157 18.6629 50.6803 18.6873C50.4888 18.7045 50.2947 18.716 50.1001 18.7246H49.984L49.4791 18.739C47.9554 18.7735 46.0253 18.9546 44.8093 17.9542C44.6386 17.8147 44.4858 17.6555 44.3535 17.4798C44.2898 17.3907 44.2287 17.3015 44.1706 17.1923C44.0503 16.9809 43.9527 16.7573 43.8806 16.5254C43.8392 16.397 43.8053 16.2665 43.7789 16.1343C43.7411 15.9475 43.7121 15.7606 43.6917 15.5594C43.6601 15.2115 43.654 14.855 43.654 14.4985C43.659 14.396 43.6726 14.294 43.6948 14.1938L43.7034 14.1967Z" fill="#FFE600"/>
<path d="M60.5683 6.9174C60.2497 6.9166 59.9341 6.97824 59.6396 7.09878C59.3447 7.21939 59.0775 7.39638 58.8519 7.6198C58.6269 7.84314 58.4485 8.10844 58.3271 8.40036C58.2057 8.69228 58.1439 9.00509 58.145 9.32076V24.3853C58.145 25.0897 57.9448 25.4346 57.5444 25.4231C57.1394 25.4132 56.7499 25.2684 56.4385 25.012C55.9943 24.7115 55.46 24.5695 54.9235 24.6095C54.5936 24.6082 54.2667 24.6738 53.9632 24.8024C53.6597 24.9309 53.3859 25.1197 53.1589 25.357C52.9059 25.6122 52.708 25.916 52.5779 26.2497C52.4474 26.5834 52.3874 26.94 52.4014 27.2975C52.4014 28.0949 52.8802 28.8385 53.838 29.5285C54.7957 30.2184 56.1278 30.5644 57.8343 30.5664C59.4251 30.5664 60.6825 30.1083 61.6074 29.1921C62.0562 28.7593 62.4106 28.2403 62.6493 27.6667C62.8875 27.0932 63.0052 26.4775 62.9946 25.8572V9.32076C62.9957 9.00483 62.9339 8.6918 62.8125 8.39969C62.6907 8.10758 62.5124 7.84221 62.2865 7.61872C62.061 7.39537 61.7933 7.21839 61.4985 7.09799C61.2032 6.97759 60.8873 6.91624 60.5683 6.9174Z" fill="#FFE600"/>
<path d="M66.5009 6.85122C66.1853 6.84971 65.8723 6.91019 65.5805 7.02915C65.2886 7.1481 65.0233 7.32314 64.8 7.54418C64.5768 7.76529 64.4004 8.02799 64.2801 8.31715C64.1602 8.60627 64.0991 8.91612 64.1006 9.22878V28.3354C64.1006 28.966 64.3536 29.5707 64.8034 30.0166C65.2536 30.4625 65.864 30.713 66.5009 30.713C67.1373 30.713 67.7478 30.4625 68.198 30.0166C68.6481 29.5707 68.9008 28.966 68.9008 28.3354V9.22878C68.9023 8.91612 68.8416 8.60627 68.7214 8.31715C68.6014 8.02799 68.4246 7.76529 68.2014 7.54418C67.9782 7.32314 67.7131 7.1481 67.4213 7.02915C67.1291 6.91019 66.8165 6.84971 66.5009 6.85122Z" fill="#FFE600"/>
<path d="M2.34025 27.7518C2.06073 27.6087 1.76946 27.4895 1.46956 27.3953C1.21707 27.3206 1.11839 27.2429 1.17933 27.1653C1.24029 27.0877 1.34477 27.0474 1.5131 27.0532C1.66076 27.0525 1.80491 27.0977 1.92522 27.1825C2.02126 27.2629 2.14203 27.3085 2.26769 27.3119C2.33314 27.3105 2.39759 27.2958 2.45702 27.2685C2.51644 27.2414 2.56957 27.2023 2.61306 27.1538C2.66264 27.1028 2.70131 27.0424 2.72674 26.9761C2.75217 26.9099 2.76386 26.8394 2.76108 26.7686C2.76108 26.6105 2.63337 26.4811 2.38088 26.3373C2.10294 26.1993 1.79492 26.1311 1.48407 26.139C1.15125 26.1318 0.828291 26.2512 0.581468 26.4725C0.46729 26.5667 0.375179 26.6844 0.311531 26.8175C0.247882 26.9505 0.214221 27.0957 0.212881 27.2429C0.211345 27.3838 0.250037 27.5222 0.324494 27.6423C0.398954 27.7623 0.506145 27.8591 0.633712 27.9214C0.907278 28.0803 1.19976 28.205 1.5044 28.2923C1.79462 28.3786 1.91361 28.459 1.86137 28.5367C1.80913 28.6143 1.68724 28.6545 1.49859 28.6488C1.33204 28.6496 1.16914 28.6005 1.03133 28.5079C0.927193 28.4256 0.79881 28.3791 0.665637 28.3757C0.60055 28.3752 0.53606 28.388 0.476158 28.4132C0.416252 28.4385 0.36221 28.4755 0.317363 28.5223C0.266841 28.5728 0.227366 28.633 0.201401 28.6993C0.175435 28.7656 0.163536 28.8365 0.166445 28.9075C0.176985 29.0011 0.210549 29.0906 0.264188 29.1683C0.317827 29.246 0.389905 29.3094 0.474085 29.3531C0.779802 29.5161 1.12627 29.5889 1.47247 29.563C1.83207 29.579 2.18451 29.4599 2.45924 29.2295C2.57229 29.1352 2.66329 29.0178 2.72593 28.8852C2.78858 28.7527 2.82137 28.6082 2.82202 28.4619C2.82271 28.3093 2.77716 28.1601 2.69127 28.0335C2.60537 27.9069 2.48309 27.8087 2.34025 27.7518Z" fill="#FFE600"/>
<path d="M5.759 26.1361C5.69589 26.1349 5.63318 26.1465 5.57477 26.1703C5.51637 26.194 5.46351 26.2293 5.41947 26.2741C5.37445 26.3185 5.33889 26.3714 5.31495 26.4297C5.29101 26.488 5.27917 26.5504 5.28015 26.6134V28.0507C5.28203 28.1262 5.26804 28.2013 5.23909 28.2711C5.21009 28.3408 5.16674 28.4039 5.1118 28.4562C5.05871 28.5102 4.99503 28.5528 4.92463 28.5815C4.85423 28.6102 4.77867 28.6242 4.70258 28.6229C4.54932 28.623 4.40219 28.5631 4.29337 28.4562C4.23938 28.4034 4.19685 28.3401 4.16842 28.2704C4.13995 28.2007 4.12619 28.1259 4.12796 28.0507V26.6134C4.12808 26.5191 4.10003 26.4268 4.04727 26.3483C3.99453 26.2698 3.91946 26.2085 3.83156 26.1721C3.74369 26.1359 3.64693 26.1262 3.55349 26.1443C3.46005 26.1625 3.37415 26.2076 3.3066 26.2741C3.26158 26.3185 3.22603 26.3714 3.20211 26.4297C3.17817 26.488 3.16633 26.5504 3.16729 26.6134V28.0507C3.16653 28.2509 3.20569 28.4491 3.28254 28.6341C3.35939 28.8191 3.47241 28.9873 3.61509 29.1289C3.75777 29.2705 3.9273 29.3828 4.11393 29.4592C4.30058 29.5357 4.50064 29.5749 4.70258 29.5745C4.9048 29.5753 5.10516 29.5364 5.29214 29.46C5.47912 29.3837 5.64898 29.2716 5.79199 29.1299C5.93497 28.9883 6.04824 28.82 6.12527 28.6348C6.2023 28.4496 6.24155 28.2511 6.2408 28.0507V26.6134C6.24159 26.5504 6.22963 26.4881 6.20573 26.4298C6.18178 26.3716 6.1463 26.3186 6.10144 26.2742C6.05653 26.2297 6.0031 26.1946 5.94432 26.1708C5.8855 26.1471 5.8225 26.1354 5.759 26.1361Z" fill="#FFE600"/>
<path d="M8.77174 27.7518C8.49226 27.6087 8.20093 27.4895 7.90103 27.3953C7.64857 27.3206 7.54986 27.2429 7.6108 27.1654C7.67174 27.0877 7.77625 27.0475 7.94454 27.0532C8.0922 27.0525 8.23638 27.0977 8.35665 27.1825C8.45507 27.2648 8.5792 27.3105 8.70783 27.3119C8.7729 27.3124 8.83747 27.2996 8.8974 27.2744C8.95724 27.2492 9.01128 27.2121 9.05617 27.1654C9.1057 27.1143 9.14442 27.0538 9.16984 26.9877C9.19526 26.9215 9.20695 26.8508 9.20419 26.7801C9.20419 26.622 9.07643 26.4926 8.82396 26.3488C8.54622 26.2101 8.23805 26.142 7.92711 26.1504C7.59533 26.1441 7.2735 26.2634 7.02747 26.4839C6.9122 26.5777 6.81899 26.6952 6.75433 26.8282C6.68966 26.9613 6.65513 27.1068 6.65306 27.2545C6.65151 27.3953 6.69023 27.5338 6.76466 27.6538C6.83913 27.7739 6.94632 27.8706 7.07388 27.9329C7.34744 28.0918 7.63992 28.2164 7.94454 28.3038C8.23478 28.39 8.35382 28.4705 8.30153 28.5482C8.2493 28.6258 8.12743 28.6661 7.93873 28.6603C7.77306 28.6615 7.61102 28.6124 7.4744 28.5194C7.36894 28.4375 7.23978 28.3911 7.10581 28.3871C7.04074 28.3867 6.97622 28.3995 6.91635 28.4247C6.85643 28.4499 6.8024 28.4871 6.75754 28.5338C6.70701 28.5843 6.66753 28.6446 6.64159 28.7108C6.61562 28.7771 6.6037 28.848 6.60664 28.919C6.61716 29.0125 6.65072 29.1022 6.70437 29.1798C6.75803 29.2575 6.83008 29.321 6.91428 29.3646C7.2201 29.5274 7.56642 29.6002 7.91266 29.5745C8.27226 29.5905 8.62466 29.4714 8.89943 29.241C9.01237 29.1447 9.10265 29.025 9.16381 28.8904C9.22496 28.7558 9.25561 28.6095 9.25351 28.4619C9.25423 28.3093 9.20862 28.1601 9.1227 28.0335C9.03685 27.9069 8.91454 27.8088 8.77174 27.7518Z" fill="#FFE600"/>
<path d="M11.1341 26.1361C10.9358 26.1336 10.7387 26.1688 10.5537 26.2396V25.4317C10.5549 25.3692 10.5433 25.3071 10.5192 25.2492C10.4953 25.1914 10.4596 25.139 10.4144 25.0954C10.3695 25.0507 10.3161 25.0156 10.2573 24.9918C10.1985 24.9681 10.1354 24.9564 10.0719 24.9574C10.0089 24.9569 9.94645 24.969 9.8882 24.9927C9.82995 25.0164 9.777 25.0513 9.73248 25.0954C9.68788 25.1396 9.65266 25.192 9.62869 25.2498C9.60479 25.3075 9.59266 25.3693 9.59303 25.4317V29.0857C9.59303 29.2118 9.64343 29.3328 9.73313 29.4222C9.82283 29.5116 9.94463 29.5622 10.0719 29.563C10.1356 29.5634 10.1988 29.5511 10.2576 29.5269C10.3164 29.5028 10.3697 29.4671 10.4144 29.4221C10.4596 29.3785 10.4953 29.3261 10.5192 29.2682C10.5433 29.2104 10.5549 29.1483 10.5537 29.0857V27.6483C10.5537 27.4958 10.6148 27.3496 10.7238 27.2417C10.8326 27.1339 10.9802 27.0733 11.1341 27.0733C11.2881 27.0733 11.4358 27.1339 11.5446 27.2417C11.6534 27.3496 11.7146 27.4958 11.7146 27.6483V29.0857C11.7134 29.1483 11.7251 29.2104 11.749 29.2682C11.773 29.3261 11.8087 29.3785 11.8539 29.4221C11.8984 29.4669 11.9515 29.5024 12.0101 29.5267C12.0687 29.5509 12.1315 29.5634 12.1949 29.5634C12.2584 29.5634 12.3212 29.5509 12.3798 29.5267C12.4383 29.5024 12.4914 29.4669 12.5359 29.4221C12.5812 29.3785 12.6168 29.3261 12.6409 29.2682C12.6648 29.2104 12.6765 29.1483 12.6753 29.0857V27.6483C12.6768 27.4478 12.6381 27.2489 12.5613 27.0634C12.4846 26.8778 12.3713 26.7092 12.2282 26.5674C12.085 26.4257 11.9148 26.3134 11.7275 26.2375C11.5402 26.1614 11.3395 26.123 11.137 26.1246L11.1341 26.1361Z" fill="#FFE600"/>
<path d="M13.5546 24.7676C13.4391 24.7681 13.3274 24.8082 13.2385 24.8812C13.1495 24.9541 13.0889 25.0553 13.0668 25.1676C13.0447 25.2799 13.0627 25.3962 13.1174 25.4969C13.1724 25.5976 13.2607 25.6763 13.3675 25.7196C13.4744 25.763 13.593 25.7684 13.7034 25.7348C13.8138 25.7012 13.909 25.6307 13.9728 25.5354C14.0367 25.4401 14.0651 25.3258 14.0534 25.212C14.0418 25.0983 13.9906 24.992 13.9087 24.9114C13.8632 24.8642 13.8081 24.827 13.7471 24.8022C13.6861 24.7774 13.6205 24.7656 13.5546 24.7676Z" fill="#FFE600"/>
<path d="M13.5546 26.1361C13.4916 26.1352 13.4289 26.147 13.3706 26.1707C13.3123 26.1944 13.2593 26.2296 13.2151 26.2741C13.17 26.3185 13.1345 26.3714 13.1106 26.4297C13.0866 26.488 13.0748 26.5504 13.0758 26.6134V29.0858C13.0745 29.1483 13.0862 29.2104 13.1102 29.2683C13.1342 29.3261 13.1698 29.3785 13.2151 29.4221C13.2592 29.467 13.312 29.5026 13.3704 29.5269C13.4287 29.551 13.4914 29.5633 13.5546 29.563C13.6183 29.5634 13.6814 29.5511 13.7403 29.5269C13.7991 29.5028 13.8524 29.4671 13.8971 29.4221C13.9423 29.3785 13.978 29.3261 14.002 29.2683C14.0259 29.2104 14.0376 29.1483 14.0364 29.0858V26.6134C14.0372 26.5504 14.0252 26.4881 14.0013 26.4298C13.9774 26.3716 13.9419 26.3186 13.897 26.2742C13.8521 26.2297 13.7987 26.1946 13.7399 26.1708C13.6811 26.1471 13.6181 26.1353 13.5546 26.1361Z" fill="#FFE600"/>
<path d="M19.8207 26.162C19.5283 26.1577 19.2398 26.23 18.9848 26.3718L18.9239 26.2971C18.8782 26.2522 18.8238 26.217 18.7639 26.1938C18.704 26.1705 18.6399 26.1597 18.5756 26.162C18.4494 26.162 18.3283 26.2117 18.239 26.3C18.1498 26.3885 18.0996 26.5084 18.0996 26.6335V30.2472C18.0976 30.3101 18.1085 30.3727 18.1317 30.4312C18.1548 30.4898 18.1897 30.5431 18.2341 30.588C18.2786 30.6328 18.3318 30.6683 18.3905 30.6922C18.4492 30.7162 18.5121 30.7281 18.5756 30.7273C18.638 30.7281 18.6998 30.7165 18.7576 30.6933C18.8154 30.67 18.868 30.6357 18.9123 30.5922C18.9571 30.5489 18.9926 30.497 19.0166 30.4396C19.0405 30.3823 19.0524 30.3207 19.0516 30.2587V29.3962C19.2873 29.5101 19.5468 29.5672 19.809 29.563C20.0336 29.563 20.2559 29.5191 20.4632 29.4341C20.6707 29.349 20.8591 29.2243 21.0179 29.067C21.1766 28.9098 21.3025 28.7231 21.3884 28.5177C21.4743 28.3122 21.5185 28.0921 21.5185 27.8697C21.5185 27.6473 21.4743 27.4271 21.3884 27.2217C21.3025 27.0162 21.1766 26.8296 21.0179 26.6723C20.8591 26.5151 20.6707 26.3903 20.4632 26.3052C20.2559 26.2202 20.0336 26.1763 19.809 26.1763L19.8207 26.162ZM20.3605 28.39C20.236 28.5152 20.0714 28.5936 19.895 28.612C19.7185 28.6304 19.5411 28.5876 19.3929 28.4907C19.2449 28.394 19.1353 28.2493 19.0829 28.0814C19.0304 27.9136 19.0385 27.7328 19.1056 27.5701C19.1727 27.4074 19.2947 27.2729 19.4508 27.1894C19.607 27.1058 19.7875 27.0786 19.9616 27.1122C20.1357 27.1459 20.2927 27.2384 20.4056 27.3739C20.5186 27.5094 20.5806 27.6795 20.581 27.8553C20.5848 27.9565 20.567 28.0575 20.529 28.1515C20.4911 28.2455 20.4336 28.3307 20.3605 28.4016V28.39Z" fill="#FFE600"/>
<path d="M22.3689 24.8194C22.3037 24.818 22.239 24.8297 22.1786 24.854C22.1182 24.8781 22.0635 24.9143 22.0177 24.9603C21.9712 25.0057 21.9345 25.0598 21.9095 25.1196C21.8846 25.1794 21.872 25.2434 21.8726 25.3081C21.8733 25.438 21.926 25.5623 22.0189 25.6539C22.112 25.7455 22.2377 25.7968 22.3689 25.7968C22.4338 25.7984 22.4984 25.7864 22.5584 25.7616C22.6184 25.7368 22.6725 25.6999 22.7171 25.6531C22.7638 25.6085 22.8007 25.5548 22.8256 25.4955C22.8506 25.4361 22.8631 25.3723 22.8623 25.3081C22.8628 25.2434 22.8502 25.1794 22.8253 25.1196C22.8004 25.0598 22.7636 25.0057 22.7171 24.9603C22.6719 24.9144 22.6176 24.8783 22.5577 24.8541C22.4978 24.8298 22.4335 24.818 22.3689 24.8194Z" fill="#FFE600"/>
<path d="M22.3688 26.162C22.2426 26.162 22.1215 26.2117 22.0322 26.3C21.943 26.3885 21.8929 26.5084 21.8929 26.6335V29.0799C21.892 29.142 21.9039 29.2036 21.9279 29.261C21.9518 29.3183 21.9873 29.3702 22.0322 29.4134C22.1225 29.4999 22.2432 29.5482 22.3688 29.5482C22.4944 29.5482 22.6151 29.4999 22.7055 29.4134C22.7494 29.3696 22.7841 29.3176 22.8075 29.2603C22.8309 29.2031 22.8426 29.1417 22.8419 29.0799V26.6449C22.8443 26.5821 22.8337 26.5194 22.8109 26.4607C22.7882 26.4021 22.7537 26.3485 22.7095 26.3034C22.6652 26.2582 22.6123 26.2225 22.5537 26.1982C22.4952 26.1738 22.4323 26.1616 22.3688 26.162Z" fill="#FFE600"/>
<path d="M25.5932 28.5826H24.6472L25.8748 26.99C25.9166 26.9432 25.9485 26.8885 25.9685 26.8292C25.9884 26.7699 25.996 26.7072 25.9908 26.645C25.9869 26.5835 25.9708 26.5235 25.9434 26.4682C25.916 26.413 25.8779 26.3636 25.8313 26.323L25.7442 26.2626C25.675 26.2277 25.5983 26.2099 25.5207 26.2109H23.7793C23.6531 26.2109 23.532 26.2605 23.4428 26.349C23.3535 26.4374 23.3034 26.5573 23.3034 26.6823C23.2998 26.745 23.3093 26.8077 23.3313 26.8665C23.3532 26.9254 23.3872 26.9792 23.4311 27.0244C23.4747 27.0688 23.5272 27.1037 23.5851 27.1269C23.643 27.1502 23.7052 27.1613 23.7677 27.1596H24.5601L23.3324 28.7494C23.2909 28.7963 23.2595 28.851 23.24 28.9104C23.2206 28.9697 23.2135 29.0323 23.2192 29.0944C23.2227 29.1562 23.2389 29.2166 23.2669 29.272C23.2948 29.3274 23.3339 29.3765 23.3817 29.4164C23.4227 29.4548 23.471 29.4845 23.5239 29.5039C23.5768 29.5231 23.6331 29.5315 23.6894 29.5285H25.5932C25.6557 29.5292 25.7177 29.5177 25.7756 29.4945C25.8336 29.4712 25.8862 29.4368 25.9305 29.3931C25.9749 29.3495 26.0099 29.2976 26.0338 29.2404C26.0576 29.1831 26.0696 29.1218 26.0692 29.0599C26.0692 28.9348 26.0191 28.8149 25.9298 28.7265C25.8406 28.6381 25.7195 28.5884 25.5932 28.5884V28.5826Z" fill="#FFE600"/>
<path d="M28.7625 28.5826H27.8164L29.044 26.99C29.0859 26.9432 29.1177 26.8885 29.1377 26.8292C29.1576 26.7699 29.1653 26.7072 29.16 26.645C29.1554 26.5831 29.1383 26.5228 29.1099 26.4675C29.0816 26.4123 29.0424 26.3631 28.9947 26.323L28.9076 26.2626C28.8384 26.2277 28.7617 26.2099 28.6841 26.2109H26.9427C26.8803 26.2109 26.8183 26.223 26.7606 26.2468C26.7028 26.2704 26.6504 26.3052 26.6062 26.349C26.562 26.3927 26.5269 26.4447 26.503 26.5019C26.4791 26.5591 26.4668 26.6204 26.4668 26.6823C26.464 26.7454 26.4744 26.8084 26.4974 26.8673C26.5203 26.9261 26.5554 26.9797 26.6003 27.0244C26.6439 27.0688 26.6964 27.1037 26.7543 27.1269C26.8123 27.1502 26.8745 27.1613 26.9369 27.1596H27.7293L26.5016 28.7494C26.4192 28.845 26.3785 28.9691 26.3884 29.0944C26.3919 29.1562 26.4082 29.2166 26.4361 29.272C26.464 29.3274 26.5031 29.3765 26.5509 29.4164C26.5919 29.4548 26.6402 29.4845 26.6931 29.5039C26.746 29.5231 26.8023 29.5315 26.8586 29.5285H28.7625C28.8249 29.5292 28.8869 29.5177 28.9448 29.4945C29.0028 29.4712 29.0554 29.4368 29.0998 29.3931C29.1441 29.3495 29.1791 29.2976 29.203 29.2404C29.2268 29.1831 29.2388 29.1218 29.2385 29.0599C29.2385 28.9348 29.1883 28.8149 29.099 28.7265C29.0098 28.6381 28.8887 28.5884 28.7625 28.5884V28.5826Z" fill="#FFE600"/>
<path d="M32.4892 26.162C32.4267 26.1609 32.3648 26.1724 32.3069 26.1956C32.2491 26.2188 32.1965 26.2533 32.1525 26.2971L32.0886 26.3718C31.8283 26.2299 31.5352 26.1577 31.2381 26.1621C30.941 26.1667 30.6503 26.2478 30.3946 26.3976C30.1387 26.5472 29.9268 26.7605 29.7796 27.0161C29.6323 27.2718 29.5549 27.5609 29.5549 27.8552C29.5549 28.1496 29.6323 28.4388 29.7796 28.6944C29.9268 28.95 30.1387 29.1632 30.3946 29.313C30.6503 29.4628 30.941 29.5439 31.2381 29.5484C31.5352 29.5529 31.8283 29.4806 32.0886 29.3388C32.1075 29.3647 32.1288 29.3887 32.1525 29.4106C32.196 29.4553 32.2483 29.4907 32.3063 29.5144C32.3642 29.5381 32.4264 29.5498 32.4892 29.5486C32.5512 29.5503 32.6129 29.5391 32.6704 29.5158C32.7278 29.4926 32.7798 29.4577 32.8229 29.4134C32.8677 29.3701 32.9032 29.3183 32.9272 29.2609C32.9511 29.2036 32.963 29.142 32.9621 29.0799V26.6449C32.9634 26.5829 32.9516 26.5211 32.9276 26.4638C32.9037 26.4064 32.868 26.3545 32.8229 26.3114C32.7809 26.2647 32.7296 26.2273 32.6721 26.2016C32.6145 26.1758 32.5522 26.1623 32.4892 26.162ZM31.7897 28.39C31.6468 28.5301 31.4538 28.6087 31.2528 28.6087C31.0517 28.6087 30.8587 28.5301 30.7159 28.39C30.6451 28.32 30.5888 28.2369 30.5505 28.1454C30.5121 28.0538 30.4925 27.9557 30.4925 27.8567C30.4925 27.7576 30.5121 27.6595 30.5505 27.568C30.5888 27.4765 30.6451 27.3934 30.7159 27.3234C30.8221 27.2184 30.9575 27.1469 31.1048 27.1179C31.2522 27.089 31.4048 27.1039 31.5435 27.1608C31.6823 27.2176 31.8009 27.314 31.8845 27.4376C31.9681 27.5612 32.0129 27.7065 32.0131 27.8552C32.0161 27.9567 31.9977 28.0576 31.9593 28.1516C31.9208 28.2456 31.863 28.3307 31.7897 28.4015V28.39Z" fill="#FFE600"/>
<path d="M42.0056 26.1907C41.9502 26.161 41.8891 26.1428 41.8261 26.1373C41.7631 26.1319 41.6998 26.1393 41.6399 26.1591C41.578 26.1767 41.5203 26.2067 41.4702 26.2473C41.4204 26.2878 41.3793 26.338 41.3499 26.3948L40.6795 28.0594L40.0087 26.3948C39.9676 26.3147 39.9043 26.2479 39.8263 26.2021C39.7482 26.1563 39.6585 26.1334 39.5676 26.1361C39.5126 26.134 39.4575 26.1418 39.4051 26.1591C39.3433 26.1771 39.286 26.2073 39.2361 26.2478C39.186 26.2884 39.1449 26.3383 39.1151 26.3948L38.4561 28.0594L37.7857 26.3948C37.7566 26.3378 37.7155 26.2874 37.6656 26.2468C37.6157 26.2063 37.5578 26.1764 37.4955 26.1591C37.4044 26.1273 37.3056 26.1236 37.2123 26.1484C37.1189 26.1733 37.0353 26.2256 36.9725 26.2984C36.9097 26.3711 36.8705 26.461 36.8604 26.5563C36.8501 26.6515 36.8692 26.7475 36.9151 26.8319L37.9889 29.3043C38.0342 29.3825 38.0994 29.4476 38.1782 29.4928C38.257 29.538 38.3463 29.5619 38.4372 29.5619C38.5284 29.5619 38.6178 29.538 38.6966 29.4928C38.7754 29.4476 38.8407 29.3825 38.8859 29.3043L39.5533 27.772L40.218 29.3043C40.2632 29.3825 40.3285 29.4476 40.4073 29.4928C40.4857 29.538 40.575 29.5619 40.6663 29.5619C40.7572 29.5619 40.8465 29.538 40.9253 29.4928C41.0041 29.4476 41.0694 29.3825 41.1146 29.3043L42.1885 26.8319C42.2186 26.7769 42.2371 26.7164 42.2427 26.654C42.248 26.5917 42.2405 26.5289 42.2205 26.4696C42.2058 26.4111 42.179 26.3562 42.1421 26.3082C42.1052 26.2602 42.0588 26.2202 42.0056 26.1907Z" fill="#FFE600"/>
<path d="M44.2606 26.1361C43.8621 26.1374 43.4764 26.2755 43.1687 26.5268C42.8614 26.7782 42.6514 27.1273 42.5749 27.5147C42.4979 27.9022 42.559 28.304 42.7475 28.6519C42.9361 28.9997 43.2408 29.272 43.6091 29.4225C43.9775 29.573 44.3873 29.5924 44.7689 29.4773C45.1501 29.3623 45.4793 29.1199 45.7006 28.7914C45.9216 28.463 46.0211 28.0687 45.9819 27.6758C45.9426 27.2829 45.7673 26.9156 45.4853 26.6364C45.3262 26.4748 45.1358 26.3472 44.925 26.2612C44.7146 26.1751 44.4884 26.1326 44.2606 26.1361ZM44.8032 28.3871C44.6781 28.51 44.5136 28.5862 44.3379 28.6025C44.1622 28.6188 43.9862 28.5744 43.8399 28.4768C43.6935 28.3791 43.5861 28.2343 43.5352 28.0669C43.4847 27.8996 43.4941 27.7199 43.562 27.5586C43.6298 27.3974 43.752 27.2644 43.9077 27.1822C44.0635 27.1001 44.2433 27.074 44.4164 27.1083C44.5891 27.1426 44.7448 27.2352 44.8567 27.3703C44.9684 27.5054 45.0298 27.6748 45.0298 27.8495C45.0313 27.9497 45.0121 28.0492 44.9732 28.1417C44.9344 28.2343 44.8763 28.3178 44.8032 28.3871Z" fill="#FFE600"/>
<path d="M48.1266 27.8122L48.9972 26.9497C49.0424 26.9063 49.0786 26.8542 49.1035 26.7967C49.128 26.7392 49.1408 26.6772 49.1408 26.6148C49.1408 26.5522 49.128 26.4904 49.1035 26.4328C49.0786 26.3753 49.0424 26.3232 48.9972 26.2798C48.953 26.2351 48.9002 26.1995 48.8418 26.1753C48.7834 26.1512 48.7208 26.1388 48.6578 26.139C48.5945 26.1383 48.5315 26.1504 48.4731 26.1747C48.4146 26.1989 48.3618 26.2346 48.3181 26.2798L47.308 27.2947V25.4317C47.3095 25.3692 47.2974 25.3071 47.2737 25.2492C47.2495 25.1914 47.2141 25.139 47.1688 25.0954C47.124 25.0507 47.0704 25.0156 47.0116 24.9918C46.9528 24.9681 46.8899 24.9564 46.8261 24.9574C46.7631 24.9565 46.7006 24.9683 46.6421 24.992C46.5841 25.0157 46.5309 25.0509 46.4868 25.0954C46.4415 25.139 46.4057 25.1914 46.382 25.2492C46.3578 25.3071 46.3461 25.3692 46.3472 25.4317V29.0857C46.3461 29.1483 46.3578 29.2104 46.382 29.2682C46.4057 29.3261 46.4415 29.3785 46.4868 29.4221C46.5309 29.467 46.5837 29.5026 46.6421 29.5268C46.7002 29.551 46.7631 29.5633 46.8261 29.563C46.8899 29.5634 46.9532 29.5511 47.012 29.5269C47.0708 29.5028 47.124 29.4671 47.1688 29.4221C47.2141 29.3785 47.2495 29.3261 47.2737 29.2682C47.2974 29.2104 47.3095 29.1483 47.308 29.0857V28.3325L48.4139 29.4221C48.4576 29.4669 48.5096 29.5025 48.5677 29.5267C48.6254 29.5509 48.6876 29.5633 48.7505 29.563C48.814 29.5632 48.8765 29.5508 48.9346 29.5266C48.993 29.5024 49.0458 29.4669 49.09 29.4221C49.1363 29.3791 49.1729 29.3268 49.1974 29.2689C49.2218 29.2109 49.2335 29.1486 49.2325 29.0857C49.2332 29.0232 49.2208 28.9611 49.1958 28.9036C49.171 28.8461 49.1337 28.7945 49.0873 28.7522L48.1266 27.8122Z" fill="#FFE600"/>
<path d="M15.8822 27.3292C15.7479 27.3292 15.6166 27.3687 15.5049 27.4426C15.3933 27.5165 15.3062 27.6216 15.2548 27.7445C15.2034 27.8674 15.19 28.0027 15.2161 28.1331C15.2424 28.2637 15.307 28.3835 15.402 28.4776C15.497 28.5717 15.618 28.6358 15.7498 28.6617C15.8815 28.6877 16.0181 28.6744 16.1421 28.6235C16.2662 28.5726 16.3723 28.4863 16.447 28.3757C16.5215 28.2651 16.5613 28.135 16.5613 28.0019C16.5613 27.9136 16.5438 27.8261 16.5096 27.7445C16.4756 27.6629 16.4255 27.5887 16.3625 27.5263C16.2994 27.4638 16.2246 27.4142 16.1421 27.3804C16.0598 27.3466 15.9714 27.3292 15.8822 27.3292Z" fill="#FFE600"/>
<path d="M34.8777 28.9162C35.2527 28.9162 35.5568 28.6149 35.5568 28.2434C35.5568 27.8718 35.2527 27.5707 34.8777 27.5707C34.5025 27.5707 34.1985 27.8718 34.1985 28.2434C34.1985 28.6149 34.5025 28.9162 34.8777 28.9162Z" fill="#FFE600"/>
<path d="M10.6785 16.3241C9.84528 16.947 8.83708 17.2977 7.79366 17.3275C7.14474 17.336 6.50738 17.1572 5.95941 16.8129L13.2499 12.65C13.5626 12.4834 13.8223 12.2337 13.9997 11.929C14.177 11.6243 14.2651 11.2766 14.2541 10.925C14.1951 9.80944 13.7045 8.75924 12.8842 7.99265C11.6479 6.78135 9.95103 6.1757 7.79366 6.1757C6.76761 6.15883 5.74898 6.35031 4.80056 6.73845C3.85216 7.1266 2.99409 7.70313 2.27932 8.43247C1.54303 9.14051 0.961003 9.99051 0.569159 10.93C0.177315 11.8694 -0.0160339 12.8785 0.00103981 13.8948C-0.0156902 14.9111 0.177817 15.9201 0.569639 16.8595C0.961461 17.7989 1.5433 18.6489 2.27932 19.3571C2.99424 20.0861 3.85239 20.6622 4.80082 21.0498C5.74925 21.4375 6.7678 21.6285 7.79366 21.6111C9.95292 21.6111 11.6469 21.0025 12.8755 19.7855C14.1041 18.5685 14.286 17.5191 13.4212 16.6375C12.5563 15.7597 11.642 15.6552 10.6785 16.3241ZM5.35282 11.4598C5.66931 11.1374 6.04922 10.8827 6.46907 10.7116C6.88892 10.5405 7.33978 10.4566 7.79366 10.4651C8.37667 10.4689 8.95329 10.5851 9.4915 10.8071L4.33124 13.7741C4.35318 12.9 4.7199 12.0692 5.35282 11.4598Z" fill="#FFE600"/>
</g>
<defs>
<clipPath id="clip0_106_6383">
<rect width="69" height="15.1395" fill="white"/>
</clipPath>
<clipPath id="clip1_106_6383">
<rect width="69" height="15.8605" fill="white" transform="translate(0 15.1395)"/>
</clipPath>
</defs>
</svg>
